<?xml version="1.0" standalone="no"?>
<!DOCTYPE svg PUBLIC "-//W3C//DTD SVG 20010904//EN"
 "http://www.w3.org/TR/2001/REC-SVG-20010904/DTD/svg10.dtd">
<svg version="1.0" xmlns="http://www.w3.org/2000/svg"
 width="150.000000pt" height="150.000000pt" viewBox="0 0 150.000000 150.000000"
 preserveAspectRatio="xMidYMid meet">
<metadata>
Created by potrace 1.11, written by Peter Selinger 2001-2013
</metadata>
<g transform="translate(0.000000,150.000000) scale(0.100000,-0.100000)"
fill="#000000" stroke="none">
<path d="M1180 1405 c-42 -43 -41 -92 1 -134 41 -42 85 -42 128 -1 25 24 31
38 31 70 0 24 -5 40 -12 40 -6 0 -8 3 -5 6 12 12 -37 41 -75 46 -32 3 -43 -1
-68 -27z"/>
<path d="M118 1419 c-10 -5 -23 -20 -30 -32 -14 -27 -21 -87 -10 -87 5 0 14
-12 20 -26 7 -14 17 -22 22 -19 6 3 10 1 10 -4 0 -6 16 -11 36 -11 29 0 44 8
70 36 19 19 34 44 34 55 0 22 -26 67 -49 87 -18 14 -79 15 -103 1z"/>
<path d="M341 1225 c-48 -27 -70 -66 -71 -126 0 -53 2 -59 39 -92 21 -19 49
-38 61 -42 38 -12 84 4 128 43 39 35 42 43 43 90 2 56 -19 92 -72 124 -34 21
-93 22 -128 3z"/>
<path d="M943 1226 c-13 -6 -23 -14 -23 -18 0 -5 -7 -8 -15 -8 -9 0 -12 -6 -9
-15 4 -8 -1 -17 -9 -21 -20 -7 -21 -113 -1 -121 8 -3 11 -9 8 -15 -6 -9 23
-35 40 -36 5 0 12 -6 17 -13 11 -18 99 -21 106 -3 3 7 9 12 14 9 15 -10 57 36
63 70 4 19 11 35 16 37 8 3 -3 36 -29 88 -4 8 -23 25 -41 38 -36 24 -98 28
-137 8z"/>
<path d="M688 1003 c-10 -3 -18 -8 -18 -13 0 -5 -13 -7 -30 -5 -20 2 -33 -2
-40 -13 -5 -9 -10 -13 -10 -8 0 5 -13 -7 -29 -27 -15 -20 -31 -34 -35 -30 -3
3 -6 -3 -6 -15 0 -11 -3 -23 -8 -26 -18 -11 -1 -176 19 -176 5 0 9 -9 9 -19 0
-12 12 -25 30 -33 17 -7 30 -16 30 -19 0 -11 74 -29 105 -26 50 6 95 19 95 28
0 5 9 9 21 9 11 0 17 5 14 10 -3 6 0 10 8 10 25 0 50 71 52 145 0 58 -3 76
-23 105 -29 44 -80 85 -107 86 -11 0 -29 5 -40 10 -11 6 -28 9 -37 7z"/>
<path d="M320 607 c-38 -34 -50 -62 -50 -115 0 -41 5 -53 32 -83 36 -37 43
-41 106 -47 28 -3 42 0 42 8 0 6 4 9 9 5 11 -6 53 31 69 62 15 28 15 98 1 125
-26 48 -61 67 -124 68 -49 0 -65 -4 -85 -23z"/>
<path d="M1088 435 c-2 -2 -19 -4 -38 -6 -39 -3 -80 -34 -80 -59 0 -9 11 -26
25 -38 21 -18 36 -21 109 -20 104 1 164 23 162 59 -1 32 -50 57 -118 63 -31 2
-58 3 -60 1z"/>
<path d="M126 345 c-3 -9 -12 -12 -22 -8 -11 4 -15 3 -11 -4 4 -6 1 -17 -6
-25 -7 -7 -14 -27 -15 -43 -4 -37 53 -105 88 -105 33 0 86 36 99 68 12 30 11
72 -1 72 -4 0 -8 9 -8 20 0 13 -7 20 -20 20 -11 0 -20 5 -20 10 0 16 -77 12
-84 -5z"/>
<path d="M681 332 c-30 -7 -60 -21 -67 -30 -15 -21 -25 -54 -14 -47 4 3 13 -2
20 -10 22 -26 240 -55 275 -36 5 3 21 5 35 6 32 2 89 32 96 50 10 25 -51 73
-92 74 -10 1 -60 2 -109 4 -54 2 -112 -2 -144 -11z"/>
<path d="M588 235 c-2 -3 -46 -6 -96 -7 -73 -1 -96 -5 -111 -19 -51 -48 16
-83 148 -78 78 3 112 19 117 54 2 15 -49 59 -58 50z"/>
<path d="M1024 231 c6 -10 2 -12 -20 -11 -3 1 -13 -9 -23 -22 -21 -25 -14 -37
34 -56 32 -13 159 -10 210 5 61 19 37 80 -32 82 -21 0 -47 2 -58 4 -11 2 -34
1 -51 -3 -17 -4 -39 -3 -49 3 -13 7 -16 6 -11 -2z"/>
<path d="M216 135 c-42 -14 -44 -55 -3 -66 48 -13 129 -4 144 16 15 22 1 45
-28 45 -11 0 -19 3 -19 8 0 10 -58 9 -94 -3z"/>
<path d="M1253 128 c-16 -17 -16 -20 0 -35 18 -18 134 -27 171 -13 28 10 28
38 1 56 -34 22 -149 17 -172 -8z"/>
</g>
</svg>
